<mxfile host="app.diagrams.net" modified="2021-05-28T09:42:03.649Z" agent="5.0 (Windows)" etag="-8yM38YzDIu5qJeMsFzx" version="14.7.2" type="github">
  <diagram id="jn291gLa78Zmggty09ea" name="Page-1">
    <mxGraphModel dx="1865" dy="547" grid="1" gridSize="10" guides="1" tooltips="1" connect="1" arrows="1" fold="1" page="1" pageScale="1" pageWidth="827" pageHeight="1169" math="0" shadow="0">
      <root>
        <mxCell id="0" />
        <mxCell id="1" parent="0" />
        <mxCell id="Fw6j12jvMZ7ZyCBsgmP4-6" value="&lt;a class=&quot;CIDa0894e9e-12ff-403a-83ec-c5acf0fa54d1&quot;&gt;&amp;nbsp;&lt;/a&gt;&lt;img src=&quot;data:image/png;base64, iVBORw0KGgoAAAANSUhEUgAAAmAAAAJhCAYAAADmNwx1AAAAAXNSR0IArs4c6QAAAARnQU1BAACxjwv8YQUAAAAJcEhZcwAADsMAAA7DAcdvqGQAADEkSURBVHhe7d0LvGxnWR/+NfuckwQIkAABAgkJhHANdywXKSAEhVq1KlgV+VPECtIiFcWiyL1/FKqC8mkrllsE1I+IotRCTROlgkTFEBDkHgKEkBAICbmQyzl79ffMmlNDsvfZs/eZeffMPt/vJ89e75p9smdm7zXP/GbNmneNOji0rKTu3HW77tJ1fWr1pKyfkDqm60Y3Haq7WerIyfKIPEh2ZQlsQt91+7K4OnVl6oph2V81VHdx6vN5OH42j7lz809T3edSqyk4JAhg7HB77t9116VGVffIBbfLRn94llWHXa92pyqc3bDqMeJxApuXDDauClU3rL2pa69X1+QfXpPlRflfPpE6J4/dD+Wx++FcBjuSJxZ2kgpR9009IJv2yVmeOOpGt0szT41un/WjU8Bi+3oesxfmMXtR3/UJZN15Wf90lglk3UdSFd5g6QlgLLs9qbt33a4Erv6U1P2znuXoxCwPs4HD8qrdZ3FtRglh3UfzuD4nleW+CmSfTF1X/wCWkecnllEdk3Xb1HFdt3LPNOfHZlN+XDbmY8ffBXashLIv5+vpecyf0XWrH89F56e+kqpjzmBpCGAsk9rbldp9//TaJ2X8g9mEj7cRw6Fn2DvWfzFf3pHXZG/vur3nZFx7xOwVYyl47mJZ1Lb6+K5beVYGj8j4qFT1YNswHLr294BLM3hf163+14zfM7kcFponLxbdzVNPTPD6sWys9SnGW6fqE4wA11efovxaktcnEsTemvEfpi6vb8AiEsBYVPWJxu/JJvqkUTd6SMZ3TtlegY3U3q/P9V3/Nxm+PeN3pXxykoVjgkkW0cO6buVpWf5Ewtd3ZlnTRwhfwDSqVxyd3nGfLO+aXlJT0dRcY3WwPiwMAYxFcnw2yQpcz0kPfXoa6B2HiwE2Lz3kDlk8MnVsektNZ1FvSX6jvgfbTQBjEdSM8/dOu3xmlr+Wpnm3vIS1xws4aNVLqqdk+MRUvT15QeqrkzFsGwGMRfAv0yNfmSb5rwUvYB4mQezhGdZkzTXD/qfqctguAhjbqU5+/ZKuW3l+GuO9sy58AXOVXnNcvtZUNsekzkqZN4xtIYCxXerk2K9M/VBSV81gL3wBLYzSbG6ZxT0zPiX12dSF9Q1oSQCjlf0BK8tdp2b5/Az/VVaOHC4GaCe9p/bA3yvD49KTvtIN55ss+3sVzJUARktHpJ6Q/vazqSeky9XB9wDbYuhBo7tneGwC2CVZfiFlzjCaEMBo5bDU96fZ/dKoG327l5jAIqhelDopi/qkZH068tOp1RTMlQBGK8+ehK86nRDAQklvqjnDHpSqSVv/ri6DeRLAaOHlaW7/LnX8ZB1g4aRHHT0aDsy/Req94wthTgQw5u25aWo/mdYmfAFLYHTLhLATMqiJWv92fBHMgUNxmLXapqpx1cm060TaL8tFd61vLKrJdNhXZ3RZlnWakqoaV12ZcjwIbF59yOZmqVtOqvYqpUY1PmLxn3z6T/Vd/6IM3pGqA/P39zaYCQGMediTOjWb1ysSwGrW6QXT1yedvpi6IN300iyvyG1N2FrdH7xuGMD2pTxWYHoVVOodlhsGsCxXsuxr/cg8qI7Kso69Oj4PsTtluVASwM7O1xdkeEbKhK3MlCcV5mD3oxJmXpiN67GTC7bbOFDlGeGSNNPzUh/Ies2A/cFUBSxge1RAe3DqoXk6eljqxPSNW2V9f2DbdukbCV8rL++6vY4JY6YEMGbssHt13b7nj7r+KZMLtku9Wr06zfP8hMH3Z3xm6v+kvpQCFtMdU49MPSahp6arOS7jmj+w9qpvm74bvaXrdv1K1137j5OLABZKmuTo1Wmc/Whba1R7vE5LPSRVr7DreLR6O8QLDlhs9Ritx2o9ZuuxW4/h0+oxvfZjvU1VTxt62/YGQXYWn4Jkln4+jepp6aDb8tZBOuQV+fq2VB2zkVes3bmpa1J1EH2+DSyBeqzWY7b2Yl+U+qvUX6b2JQSdnP5Skzo3Nbxyq09y9xUM3zdehYMkgDErj0+Dek5eqdZs0k2lW1+V6/6DDF+Ttd/L8uyUTy/C8qvHcB7fXZ2n8aN5nJ+T+mbGd00oaro3avLC8japz6c+U5fBwRDAmIU7pj29MuGr3i5oeX7HK/uuPz3XfVo25TfnBXJ9Uunrw7eAHSaP7f4fum73p7L8Uura9Jw6ZqzZHrFcXwWw26f+InV5XQZbJYBxsI5M5np6GtPTM67d8030XXdBvr4j9arUH+WF8lcm3wJ2tHqs93+dQR0Qf3hi0bGjrrv5+Fvzt5Jed0Ku8+Lchg9nvU5bBLAtHpiedPFaB67OqVZzfeelfjbX7QUEHNrSA6oXrJxXveEGvWJuVT0v153eB1vnCYyDcZfUf8grwn8+rM5f361+KF/TcPvfGa8Ch7L0gJrXr/9k6l7pRcdOLp+rUdfdNNdXh1t8LOWwB6C1lR9NXbvWK8R5VK7wd1P3qyuuaweYqJ5QveF31+od86jqfUMPhK2xB4ytekSq9n6dPKzOTzrdN/L11zL8L6mPDhcB/D/VE2rKio+nLuu60f1G4+PD5ic/P8+f41MqfS5VpzeDTRHA2Irabn484evfpA2lD81PumrNXP/ajH4ry2p0AOupY7MSwkZXZ3m3NKe5zkmYn3/nLM5P1VxlXhiyKQIYW/GoSfg6cbI+F+lml+frm1OvyKrjLIBp1ITMdZ7X26RH3We+e8JG+1+B1ovDmqsMpiaAsQWjeuvxezKY80SI/Wmp38jAFBPAZtQs+nUmjFumVz1ofMncjG6bLzVZ7HvGqzAlAYzNOiUN7VlpOrXrfW76bvVPsqjwVcd8sZjqxX8d/FzLQ7VYXLXX/KJ0k9umZ91juGgu9mRDqG3hrJQXi0xNA2GzXp1m9v9l07nVZH3mEr4qdD0jVZMtsphuktdvD8tf64SuW62TJh9qvaRP9rwyd/u8rtv3gazXMUcspoenXjfqVk4ZVuehv6Qfpsb5mWEdNiaAMa3aVo5L+Hp3hvceLpq9PKvlFeTqUzOs0wrV2wgsll357/vyl/rJbBB1DGAdX7N7/Jc7pIxb597U1bnnn8/66xLE/jTr++obLJQ6VOLUBOY3569WbxfOSf+xhLAnZFAH5R9qDwhgjo5IPSOvIi+9/lw4s6w0yEtS/z7X0/Qku2zGrh/M3+istf5+h3LV72T43bCgDht6y8ola/39ZlSX5npqz331StiQCS2ZVp1z7YlZ3mRYnblr8qLxvV23+rqM7flaTLvz9/mBUdfVSde5nuF3svoDGTY7Hyqbcu3QW/q/zDi9Zi7SG8c9cq7zj7FzCGBM6w5pLg/LMq8k52F8KpHXZyB8La7j5vsWznKb/G6OG9ZYQOktK/89y/SauUhvHPfI9ErYmADGNOqA++/KE8xc9n71eWma+rsM/2y4hAVVb7FcMQxZQ/1u6nfEwtr37r7r/7Z6zuSCmZr0yO9Kze1DSuwcAhjTqFf235tKf5m9/NC/yqb4e5NVFtelefI6K/W1yToT9Tup302GAtjC6982Gt6KnIfqkdUr7SlmQwIY07hTNpVHZjnzAJZXon3qzLwyrU89svjekD/ZLyVsfCx/t0Ne/Q7yu/h4vr4ww/xuWAJ/2XejM/O3m8cnVtMjx70yPRMObC57NNhRjkpDeXo2lF+drM9UmuC78/Nf3nV7ay4llkO9vfLA/N3unr/gsRnX2y7VSw6VTFb3td7CujrDL2f4qYzPTtkzuDy+LX+7F46GM3rMXB4IP5ftogK5PaKsSwBjI/dN/fyoW3nysDpT16VRPTON6i01Hi5iydTJjutj97U3/RAMYN036gKWTp0F5skJYL+dP+fMP7XYd6tvy+JVqY+MLwDYgiekQf3DDea7mUnl5743P3+Os1MDrOteqT9fqzcdbFXPzM+uSVlhXY4BYwMrx6eZzCkk9TVz+IXDGKCp6j3vGoazVj2zeiesTwDjQA5PSDpxHu9TT96r+qvUV4chQFOXpN6fXjTzKSmGntnvP1UXrEkA40DunjppGM7UvjSnOjbiy8MqwLaoc89+KMt5fCKyemf1UFiTAMaB3CV1wjCcqToVyJkpk3oC2yk9aFS96Nphdaaqd1YPhTUJYBxInVLjdsNwpvZm03tPllcNqwDbIj1o5c/7+XwKu3qn0xKxLgGMAxilgYyOmazM0le7bl+demheJ8UFmMa16UV/n+XFw+osVe+sHgprE8A4kNuNuu5mk/GsXNV3fTW8rw+rANvq0q7rayLdme6Rn/ROAYx1CWCsKw3k6Mlwli7JT675v+bx4UqAzUovGvekmZ/JYE49lB1CAGM9NYdNzXI+a9/sutXPZzmZiQJgW9VMFF/Iss5sMGvVQ80HxpoEMNZzx9TNh+Es9fVpo68MY4CFkJ407k2zVj20einciADGemrXeZ3jb8ZG1eRMvgoskosnvWnWqod6G5I1CWCsY9dN05B2T1Zmaf8eMG9BAougelH1pDkEsOqh1UvhxgQw1tHXK7d5BLCaesIErMAiqZ40j2lx0kPHvRRuRABjHat51dbvmazMTF5qfmMynIf6ZKVSamfXXMynN1UPrV4KNza3jZml95xRN3pONpE7T9Zn4bq+G/1e1+176mR9luqkt9XovKiAnatOnF3zdc1hb9Wu00Zd/yMZzPCFZ/+5vut/I4Mq+BYCGOv5hQSwn8omMsOPUPeXphm9KYPnDusH7ahUwtzKI7Mh1yk/Dks5tgx2rnrOujYP8guTxd6XcfWTS+obM/Dr6XlPy1VUX5mR/ovpef8tg18e1uGfCGCs58VpRj+ZTWSG5zLrL0ozel0GLx7WD8ae+3Td3mdnA35cbuOJkwuBQ0b/hQSxM7pu92923XXnTC48GC9Nz3tG+skMZ6/vL0jP++0MXjqswz/xdg3rqW1j1gF9X2rvMDwot8qP+dE0y38rfMGhanSnYY/V3h/LyizOWVu9qXrULFUP9TzLmmwYrGcee0frZ87i535X6ruHIXCIq17wL4bhQZlVf7qhefxMdgABjCU0OiV18mQFOKRVL6ieAMtFAGMZ1XFp5tYBavfSrtSxk1VYGgIYy2iPffrA9eyaLGFpCGAsHeELgGUngAEANCaAAQA05t0c1vOyUTf6iWwiMzy4tf9y3/W/lcHLhvWtye16a74+ebK6kZol+7phCCyROiXQrYbhRvrfT2+p0wgdjBeltzxzDj3v9Rm8aFiHfyKAsZ6dEMD29d3qY7I8u8Ype3xh8dX5Huug+geNupUzJuMNCGDAzlEB7II0wH52NbogP/egG1EFsLV//o2qZrZ+4PB/AUumAtjeGzym16k6yf9BqwA2j553UC842bnsEWCnq23cnl5YLvWY9fzEjmYDBwBoTAADAGhMAAMAaEwAAwBoTAADAGhMAAMAaEwAAwBoTAADAGhMAAMAaEwAAwBoTAADAGhMAAMAaEwAAwBoTAADAGhMAAMAaEwAAwBoTAADAGhMAAMAaEwAAwBoTAADAGhMAAMAaEwAAwBoTAADAGhMAAMAaEwAAwBoTAADAGhMAAMAaEwAAwBoTAADAGhMAAMAaEwAAwBoTAADAGhMAAMAaEwAAwBoTAADAGhMAAMAaEwAAwBoTAADAGhMAAMAaEwAAwBoTAADAGhMAAMAaEwAAwBoTAADAGhMAAMAaEwAAwBoTAADAGhMAAMAaEwAAwBoTAADAGhMAAMAaEwAAwBoTAADAGhMAAMAaEwAAwBoTAADAGhMAAMAaEwAAwBoTAADAGhMAAMAaEwAAwBoTAADAGhMAAMAaEwAAwBoTAADAGhMAAMAaEwAAwBoTAADAGhMAAMAaEwAAwBoTAADAGhMAAMAaEwAAwBoTAADAGhMAAMAaEwAAwBoTAADAGhMAAMAaEwAAwBoTAADAGhMAAMAaEwAAwBoTAADAGhMAAMAaEwAAwBoTAADAGhMAAMAaEwAAwBoTAADAGhMAAMAaEwAAwBoTAADAGhMAAMAaEwAAwBoTAADAGhMAAMAaEwAAwBoTAADAGhMAAMAaEwAAwBoTAADAGhMAAMAaEwAAwBoTAADAGhMAAMAaEwAAwBoTAADAGhMAAMAaEwAAwBoTAADAGhMAAMAaEwAAwBoTAADAGhMAAMAaEwAAwBoTAADAGhMAAMAaEwAAwBoTAADAGhMAAMAaEwAAwBoTAADAGhMAAMAaEwAAwBoTAADAGhMAAMAaEwAAwBoTAADAGhMAAMAaEwAAwBoTAADAGhMAAMAaEwAAwBoTAADAGhMAAMAaEwAAwBoTAADAGhMAAMAaEwAAwBoTAADAGhMAAMAaEwAAwBoTAADAGhMAAMAaEwAAwBoTAADAGhMAAMAaEwAAwBoTAADAGhMAAMAaEwAAwBoTAADAGhMAAMAaEwAAwBoTAADAGhMAAMAaEwAAwBoTAADAGhMAAMAaEwAAwBoTAADAGhMAAMAaEwAAwBoTAADAGhMAAMAaEwAAwBoTAADAGhMAAMAaEwAAwBoTAADAGhMAAMAaEwAAwBoTAADAGhMAAMAaEwAAwBoTAADAGhMAAMAaEwAAwBoTAADAGhMAAMAaEwAAwBoTAADAGhMAAMAaEwAAwBoTAADAGhMAAMAaEwAAwBoTAADAGhMAAMAaEwAAwBoTAADAGhMAAMAaEwAAwBoTAADAGhMAAMAaEwAAwBoTAADAGhMAAMAaEwAAwBoTAADAGhMAAMAaEwAAwBoTAADAGhMAAMAaEwAAwBoTAADAGhMAAMAaEwAAwBoTAADAGhMAAMAaEwAAwBoTAADAGhMAAMAaEwAAwBoTAADAGhMAAMAaEwAAwBoTAADAGhMAAMAaEwAAwBoTAADAGhMAAMAaEwAAwBoTAADAGhMAAMAaEwAAwBoTAADAGhMAAMAaEwAAwBoTAADAGhMAAMAaEwAAwBoTAADAGhMAAMAaEwAAwBoTAADAGhMAAMAaEwAAwBoTAADAGhMAAMAaEwAAwBoTAADAGhMAAMAaEwAAwBoTAADAGhMAAMAaEwAAwBoTAADAGhMAAMAaEwAAwBoTAADAGhMAAMAaEwAAwBoTAADAGhMAAMAaEwAAwBoTAADAGhMAAMAaEwAAwBoTAADAGhMAAMAaEwAAwBoTAADAGhMAAMAaEwAAwBoTAADAGhMAAMAaEwAAwBoTAADAGhMAAMAaEwAAwBoTAADAGhMAAMAaEwAAwBoTAADAGhMAAMAaEwAAwBoTAADAGhMAAMAaEwAAwBoTAADAGhMAAMAaEwAAwBoTAADAGhMAAMAaEwAAwBoTAADAGhMAAMAaEwAAwBoTAADAGhMAAMAaEwAAwBoTAADAGhMAAMAaEwAAwBoTAADAGhMAAMAaEwAAwBoTAADAGhMAAMAaEwAAwBoTAADAGhMAAMAaEwAAwBoTAADAGhMAAMAaEwAAwBoTAADAGhMAAMAaEwAAwBoTAADAGhMAAMAaEwAAwBoTAADAGhMAAMAaEwAAwBoTAADAGhMAAMAaEwAAwBoTAADAGhMAAMAaEwAAwBoTAADAGhMAAMAaEwAAwBoTAADAGhMAAMAaEwAAwBoTAADAGhMAAMAaEwAAwBoTAADAGhMAAMAaEwAAwBoTAADAGhMAAMAaEwAAwBoTAADAGhMAAMAaEwAAwBoTAADAGhMAAMAaEwAAwBoTAADAGhMAAMAaEwAAwBoTAADAGhMAAMAaEwAAwBoTAADAGhMAAMAaEwAAwBoTAADAGhMAAMAaEwAAwBoTAADAGhMAAMAaEwAAwBoTAADAGhMAAMAaEwAAwBoTAADAGhMAAMAaEwAAwBoTAADAGhMAAMAaEwAAwBoTAADAGhMAAMAaEwAAwBoTAADAGhMAAMAaEwAAwBoTAADAGhMAAMAaEwAAwBoTAADAGhMAAMAaEwAAwBoTAADAGhMAAMAaEwAAwBoTAADAGhMAAMAaEwAAwBoTAADAGhMAAMAaEwAAwBoTAADAGhMAAMAaEwAAwBoTAADAGhMAAMAaEwAAwBoTAADAGhMAAMAaEwAAwBoTAADAGhMAAMAaEwAAwBoTAADAGhMAAMAaEwAAwBoTAADAGhMAAMAaEwAAwBoTAADAGhMAAMAaEwAYyfrU1dMlsDy8NhlxxtNlnBDLxt1o5/IJnLsZH0G+i/3Xf9bGbxsWN+a3K635uuTJ6sHspru/TP5t5+uccr2DouvQtdKFifnAfvqYbyR/vfTW35ksrJVL0pveeYcet7rM3jRsA7/xBMS69kJAaw6+XXDAlgyozxB7ZmMNyCAsXwEMNazIwIYcCgQwFg+jgEDAGhMAAMAaEwAYxl56xy4Pj2BpSOAsXT6rrtqMgSonvDNyRCWhgDGEhp9MQ338skKcAhLL7g6iy8Na7A8BDCW0Oo/pO3+42QFOKRVL+g/MlmBpSGAsYz+uOtGf2RyLzi0DT1g9Ef58ofjISwRAYwltfrm1LP6rv+MIAaHnjz2623Hn0kfeGOWdaYLWCo+OcJ6FnYi1uu5ZeqheR1xl/zsO2V801Rt0zIZ7Dz7H9tXZ3h+Mte5GX8gdUlqFkzESlMCGOtZhgB2fbdK3SRlm4adrT7x+LVhOFMCGLAQKoBdMOpW+tnV6IL8XI0IWEQVwObR8+bxgpMdwDFgAACNCWAAAI0JYAAAjQlgAACNCWAAAI0JYAAAjQlgwCI7LHWLVM3zdkzq9qk7pE5I3WNSNa7L6nv1b+rf1v9zeApgIQlgwKI6KvXorhs9N8tfSb0+43embb0/9bFRt/LxqhoPl9X36t90r0z9XOqxqaNTALA0TMTKNthzSr78u4SpdyRUfSbbzddSl6euSl2dui61mrrh9lWX1ffq39S/rf/nkvyMz+Zn1cman52ffb/xVcDaTMRKU/aAAdut9nQ9I0HpT0bdvtPyxPXzeeJ6wqjrTsrl9Xbikak6zVS9pbg7tdbppuqy+l79m/q39f8cnQvvMvysleflZ78p/+xPc/mzUvVzAbaNAAZsl9umBf3rhKJfTUj6mdT35rIHpurE6hWiZuWI1PGpB+Q6vif1H+o6c90/kstuV/8AoDUBDGjt1qlHJQQ9J8uXJBA9PeO7j7/TxOjkXOfTMnjx5DY8OlW3CaAZAQxo6bjUU9J63pAQ9Iuj4VOM2yLXfffchl+o25LV3KbxbQNoQgADWrlr6lWjbuXXE37q+K6FMBwntvLrGb4qVbcRYO4EMKCFUxN13pqg86SMk3kWzmi4baO3ZpzbCjBfAhgwT7vSZp6Zes2oG31b1uuTiotq93AbV14z3Oa67QDzIYAB85KwtVIToj5v1HX3znIZ+s3K5LY+b3LbFzkwAktMAAPmZOXH8uXZdYzVsH4w+q/ly8ey/EDqzNT/SL19UjU+I/XX+TcfzbL+7UGZ3OZn5z48ebgEYLbsYmc93zHqRg/MU9HNJ+uzcEXqg6n3jtfYqeqF3UOy7bw2Qabm9NqK1VQFqS/2XffxhKr/mZ/3jizrdEN/kvrD1O9Pxglf3V+lEsBG/5B/c2GW1+W6r8ll+d/H84Bt+sVm/v86n+T98iP+Jsua0bx+FjvXo9LzHpy//Kx73tmpvxivAUzBqYjYqpNTf5u/+b4bbwMbVv0/e/MkWE9aL+663XlC3Ko9NanrC/Kz/jb569rJz17rOg9U+/Iz8v+P7xM7m1MR0ZS3IIFZqmkc8kS2UsFp0/2l7/pP993qT2f0L7OaJ669FcS26Lpz8uUV+Vnf23Wrz87P/eRw+aasTO5LvXAwRQUwMwIYMCu3Skv5/gSWOsXPaLhoOn3XXZX6xYyemNXTUvvf8qu3Ireq/t/6GRem3pL6obqOuq6MN6OmqMh9Wvn+jJ1DEpgJAQyYkV2PyJen1mC8OqUEok9l8ZzkpTdm+dHUlXX5jFXoys8eX8dP5zo3uzes7lPu2/g+Ahw0AQyYhaMSbk4dDVM4TKvvh08uvnwSjC4aXzpfuY7VN2X5slz3+7Kceg/bcN9Wa5LW3FeAgyOAATOw8n2jbvSYycpUEoDOytdfSaip2ecP5q3Gzcp1rf5urvsVuQ3vn1w2leE+rnzfZBVgywQw4GAdnjBTx0dNvfer77ovpf28MsN3DZdsi3fnNrwqt+ULk/Vp5D6O72vuM8DWCWDAwXraqOvuOxlvKIFnb9etPrfr9v2vyUXbaN/puS0/m9t03eSCDU3u69OGNYCtEcCAgzT64dSdJysb2ZfA85Isa2LKq8eXbK+arPW9uU0vzbLm/JpC3de6zwBbJ4ABW1X9426j6cNXHXRfnz6sY74uHl+yGOq2vHVy2/rxJRuY3Oe7pfRQYEs0D2CrDks9KnXkeG1jlybf1KcdN3PMVSu5TePblts4lbrPdd/rdwCwaQIYsFUJH6PHZXmTYXUj/cfy5XeG8ULKbRvfxmnkPo/v+55hFWBzBDBgq45MCHl4llMEsP5LfdfXQff1dt9Ub/M1Vrfp4uE29l8aLjqgCmB136fd+wfwLQQwYCvqrbd7j7ru9sPqhs5LnTEMF1rdxrqtG5rc91NS3oYENk0AA7biqLSPh2aZHHJgtWspdX4WZ40vWGxn1W2dchdd7vvKQ7I0Mz6waQIYsBVHdN3qcZPxBvpvpD5eg2F9oeU21m2t2zyN1ePzJb8LgM0RwICtqLfdbpvacA9YnJv6xDBcCnVb6zZvpO77MSlvQQKbJoABW1Gho8LHNC5MXTAMl0Ld1rrN06gQKoABmyaAAVuR0DGq8DGNK1KXD8OlULe1bvMUxr8DAQzYNAEM2ILdh0/CxzRvQSbQHH7ZZLwExrd1msCY+16/g/pdAGyOAAZswd7a63PLYbyhb3TdNUsUwMa3dcqD8Ot3MP5dAGyKAAbMW336cRk+Abnfst1eYAkJYBzING8vbYYnth1j9958+eYw3tBNU8s0Y3zd1rrN08jvYPd1kzHLbR79adY9lB1EAGM9q6lZN6Ndqd3DkOW295p8+Upqim1k5ZZdt2fatysXQN3Wus0bqvt+UX4X1w6rLLnqTdWjZqn66L5hCN9KAGM99QRbezlmqQ5WvvkwZMkldPQVwKawmr/5dUsUwOq21m2exvh3IIDtDPU3n/UHKip8VS+FGxHAWM9VqRkHsNHN8gLz1pMVltsmAlh3dGqZ/u51W+s2T2H8O/AEuyNUb6oeNVP19vSVwxC+lQDGeiqAzfrYlj15wrrVZMxyq9BxcWqat6lPSqu5+2S8BMa3Nbd5Q3Xf7QHbMca9KT1qpqqHVi+FGxHAWMdKmsZo5gcXj7ruFpMhyy2hY3TRZLyBmiurv9dkZQnUbZ12ktnx78AesB1gPr2peujKlJP6cqgRwFjH6Op8mfUxYKWOsVimT8SxtsvSPv4+yw17yORjYHdK3WMYLrS6jXea8qNrue8rH8xyieY4Yx3Vk+YxoW4C2MgeMNYkgLGOfWka/TwCWE1aOe0M6iyubB/7zsnykmH1wPLHPjGLU4e1hXbq5LZOI/d934eznHY6DhZT9aLqSXOYULdPAKteCjcmgLGeS1O1F2zG+mpytxnGLLmL+q6vEDbFMVCj41OPy+CIYX0h5bbVbazbuqFrc98/lGUdB8fyO2bSm2ateujXhyF8KwGM9ZyfmsMJlEf794Cx/PbmSev0LKd5hb9n1I2+ret2fXfGs55raRZym3Z993AbpzoQu/YQ132fx15i2ktPGvemWase+qVhCN9KAGM9X0xNez68zTgim10dD+QtyOVXe77OTE37FkvtZfi5LG8yrC6U3KbxbcttnEpNLVD33QH4yy+9aNyT5rF3tgLYlB9W4VAjgLGufj67zm+dn/yoLKeZvoDFVnt/zs4fctr5wHbnme4+aTs/nPG0p/ppIbdl5YeH2zbdmRpyn+utx7NTZjlffvlzjnvSzOeqyw+e6hhJDk0CGAdyURrIrCcRzJPd6IFZHjWssuQqhL0zNe2r/Jro8hdSD08tQv+pPbEPS9VtmnYSzrqvdZ+Fr50hvWjck2b6oiC98/L83GlfnHAIEsA4gD5PNP08DjI+put2PSjLeRxzQXOrp+XJ5qOTlQ0l8dwlX38+w4cMl2yrf5bb8rzhNk1nuK+rp01WWW7pQeNeNO1bz5vQfzXbiQDGugQwDuSC1MyPX8iT3Z40pu/McJHehmLrzkudnmBy4bA6jfGnDZ+RwSnD+raoCVd/MvVdk/UNTe5jHXxf95nllx60+p1DT5q56p1fHoZwYwIYB3Ju6vPDcKYOz1PZY7I0IeuOsfr2/E3/92RlQ/W+36gbPTVfn59hzZLf8pORdV33qOvObfg3dVumV/ex7is7RHrQuBfNY298fZCpeiisSQDjQD6Z+uwwnKk8Aa48IEvTUewceaIZndlPf0D+WALQk7MtvDHDmv5hqgPgD1KFrwfVdea6n5Lx1D1wuG+j+uSjJ9WdIz1o3Ivm8QLgM6nqobAmAYwDuSZPOOfliWfmRsO29+0pJ+feMVb/PDGljgfblGwL/yybw++lfjyr8zwuMD975empP8h1PnRy2VSG+9SfNtxHdojqPd8+6UUzNWwvo3qb2jQlrKvlbn+WUl97qe43mvrkxJvR1x6P96XMJr4z1JxHdQaF47K9nDy+ZDqjPAkelXpAht8xjmRdX3uZZnUy+Jpm4gfyc1+Rn/xDqS3MQ9e/O/VfMvjEsM4OcOfUc7KtnjSszlL/0dQ7Mqi9YLAmAYyN1IHyd02Tuu+wOjt5Bjwuizqhc32Cbh472miv3oKsA9Ufkm1ms/Mq3SLbxMmpOiF21dGpmurha6mtbB91bFkd7P/03Jan5Oc+Iuu3GH9nE/qu/1S+vijDD6RWxxey7Oq57/HZLv59to85vPU9PkvCe1Iz/xATO4cAxkau6bqVY/PkVZ9anLFx46v6dKo+cclyy2YyDihfSF2TlQfnoq180OK2eWLM/1sTo47unO3vrqnb5Umt5o67ZermqZq1vLadWlZQqz20d0idlLb2bfn/vifj2uv15PysJ0y+vwV9wmT/yxn8UarmPKv7yPKrbfOnsm1USJ+D0e9ku/nLDOZwPl12Cs2EaSR8rfzPbCwzD+z9sIfjxXne/v+HS9g5Rr+ZJ7gnZ3DQx/llO7kkXz+SYX2y7OsZ116x/bOMJ4CN97ZVEKuTft832+osZjW/pO/6t+a6njNZZ8dYeUG+vHR+PW31X2ToeEHgoNXbQWeOupXVVD/7Gp2Rn//o8TWxkxyRMPS2/I2/eeO/+cLXN+u2D/eBHebR1XPW+JvPomoPcH1StnomHJC3IJlGNZUj0rTqbciZ7zXtu9EJWdSesHeNL2CnqLfsam6wlWw298uGsxRhpu+6y/L1N1K/mNVZn4qLbTd6Qer7sz3OvJdFNp/+tVn+dSohHtYngDGNaiR5Uho9LR1r5tMEVCNMuNud5+nPp3n51NDOUh/D/2D+rjWh7z3yd77N+NIF1Xf9J/L1hRm+PvWN8YXsILuekH7z1NTtJxfMVNLXVfn6HzOst8rhgAQwplVTAjw8T6D1ycV5bDdHpXHVJ9TqYGefNNtZKoR9KnVesnYdp3XXeex6OBh54iz/K6NXZvmnqSvGl7CT1OmGfjk9rE6+PodPPnbXZvt5f5ZvSJn/iw0JYEyrnjMPS/OqY7Xm8VZSGuIor0pHl6eJfSjrQtjOUgH+E123cn7+vtV3bpNtadNTQsxD3/X1Cdx35ra9Nms1dcCs5h9jcdQkvM9If6m9+PM6BVpCe/+bWdbUOvX2OxyQAMa06hiti9K8vjdNbA6Tso4T3k2yeHCa2IezrLeshLAdp6/ZwWs+rdpDsDshrJ4Mt+uk7F9N+Pq73Kbfzfg/Z1nz0bHz1J6vU9NhXp0eM8e3wPs6bdtLUl8fr8IGBDA2o46JqYky75ZmVmFp5vKzb5ZGdv8Mz045jmJnqrf36q2aM/IXvzbLmmeuQlj1owznqkL91X3XfS7LN2Rbe3GWf5byluPOVaedqilRaub7OelrypI/zuAPhnWA2TsljeysNT5+PdPK9bwzVSdoZuc7rhvPy7Ty2bW2hVlWriPBa6VCV52OiJ2vesg719oWZlujs3I9p4yvEWB+Rq9J07nyxk1otpXreV2ubA7naWMB1fFgx6cenYD0i/nbn566LOM1t41pK///5akzUvXJxsdOrqNm05/3nja2X3rH6HVrbRczritzPa+ZXCdMTRNiK2oiw5dk83nUZH0u8uxZB+QnhI3fJrpquJQdrnpSHWN4u9QdEpzyJNrfJ+M6dufojGvW+1sNNT4lUantpGbKT43q+Juqr2X80dRnum5fHWRf5+Sr81Q6rvDQcNP87V+aekY2qP3byZz07+27vo79qlMPwdQEMLaijtV5UULYC7MJzXUbSgj7UhYJYav/Pcs6yTOHljqAuo7d2X8OyEmt1B6z/Z9muyLbRx2fmCA2rjqe67JUHedVx5hxaLl9to9/m2WFrzsOF81L3yd8vTyDl6Xqg0oAc/eIhK/T19gdP/NKM61JYKvJOb0HcCDpEdUrVi5bq5fMuqoH5jrTCwGaWvnR1LVrNaZZV64n1b0lVW9H2XMLXF/1hOoN6RFr95BZV/W+oQfC1piGgoPQX5k6ctSNHjS5YG6qu+Z67pvre3CGNUdYzbkDUOo8tb+RYFSnGmpk9Y3pR7+fgXm/gG3xwLwKvPiGrw7nWKu5vnNTPz25fuCQVr1g5dzqDTfoFXOr6nm54vQ+2Dp7wDhYl3fd6Lq86vyOjFeGi+aqjvqv8wnW2w01RUXtDatmCBxa7p128OLUj6cnnJD1Vju/6jRDL++G01b5kAdbJoBxsOoEtHV6mfuNulE1wRYhrDrtLXJ998zwLrnKY7tuz2Vdt++rw3eBneuwPO77p2Tw9PSAf5VecMxweRN7+64/M9f/nzL+2nARbI0AxizUR/9rL9R90xBvP76kjcNzffXJyIelId46sewmWdZ8YZeOvwvsFLV3q15sPT6P8adm/FN57N83y8Prm60kfH1kEr4+NFwCWyeAMSufSdUkmfesvVPDRW3k+hLEujp/5ONSCWLjeaCq6u0BE2/C8tqdqsf0Q/JIf1bqP+ax/pB6zI+/21A/npOwf1OGbx4uAVgce9IgX51XqWseuNqu6hQ24yaZpl0n9x438Xqxkb4NLLB6jNZjtR6z9ditx/Cb6zG99mO9TVVPG3rbeGJgmAlPSMzYYffqun3PHw3HaGyn61JXp2ue33Wr78/4zNT/SdXM+sBiqpnrH5l6TELPt+cJ6riMj0hta/Dpu9Fbkgt/peuu/cfJRXDQBDDmYPejEnpemI2rTn68COo0NZcljNX5As9LfSDrZ6U+mLoyBWyP2stVc/s9NE9HD0udmL5R5/msU081PZRhPekbdTL3l3fd3vdOLoKZEMCYh3q1emo2r1eMulEdm7Vg+i/kyxdTF6S51gH7V+S2XjY5n2C9fbl/WVUBrc7x5rEC08tDa/xWYgWsClP7A1WWdR7PvtaPzIPqqCzvkDo+D7E7ZblQ+q4/O19fkGFC2HivOsyMJxVmrbapar51DMeTEsBelovuWt9YVHVj4+qM9oevGwYwB/LD5tWUNDcMYKlRjY9Y/Cef/lMJYC/K4B2pmvtrf2+DmRDAmLfnJoT9dDa1miMMYAn05yZ8vSaD1w7rMHumoWDe6nirWyfpn5QQthDHdACsr/9CwldNN/Gfh3WYDwGMFv4iVW/j3XPUjeqYD4CFk+B1br7+aoZVMFcCGK2cnaopIE5KCDt2fAnAgkj4+mC+vjTDt6Uc98ncCWC0Up8krNnyv9B1ozp3210cgAhst8lR9adn9Mos351ygm2aEMBopfJWfZLo0123ckGaXZ226K65sMnJuwFuKOErLwz7P0sb+rUs/zwX7f+0I8ydAMY2qOMsuo+njkqvOzbd7qbjiwEaSfj6ar6+K/WfUvVhIWhKAGO7XJiq3f03Swg7ISGsPiHplScwb6sJX59P6Hpj6nlZP3+4GNoSwNhONbP0mWmCn83yxFE3On58KcCc9F3/vnz9hQx/O1VvOcK2EMBYBHVw/t+kvtl1o4eO7AkDZqwfh63+ValXZLX6zeT4e9geAhiLoBrhV1If77qVD2T1yGSwkwQx4GCluazm6/9Ib/mlDP84F9UxqMIX204AY5F8I33xH7P8XLLX+RnffNSN6kS9AJvWd/3fp5f8dkZvSv3vXHT58B3YfgIYi6jC1/uzvCi1mhBWJ/StGfTtEQM2Unu3Ppfw9Z4M/1vqDVn/4vg7sEA8obHobp56Ytet/Fg21ntkfOvU4fUNgOu5JvW1pK9P5HXbWzP+w5Q9XiwsAYxlUdvq4xPEnpXBIzKuPWL1Stc2DIeu/T3g0gzel+D1XzN+z+RyWGievFgme4baff+u2/ekjH8wm/DxNmI49AwJq6+3Ft/Rdbve3nV7z8m4prapgoXnuYtlVMcu3jZ1XNet3DNN+LHZlB+XjdlJvmGHS/D6cr6ensf8GV23WmfUqIlU61PUdb5ZWBoCGMuu9ordPZns5DTlU1L3z3qWoxOzPMwGDstr8j7itRmdl+VH87g+J5Xlvk9n/ZMpe7tYWp6f2El2p+6bekA27QSy8ez6t0vzTo1un/WjU8Bi+3oesxfmMXtR3/X1SeiEr74C14dSH0mZvZ4dQQBjh9tz/7xITo2q6lOUt8tGX5+irDrselXhbWWNqseIxwlsXu3AqlpdoypEXXu9uib/sD7FmMDVfyJ1Th67CVzXfTiXwY7kiYVDTYWqO3fdrrukyadWT8r6Calj8nC46VB1gvDuyMnyiDxIzJcHm5RAVcdkXZ26MnXFsOyvGqq7OPX5PBw/m8fcufmnNTv951IVzuAQ0HX/F+0tPMMPYEOsAAAAAElFTkSuQmCC&quot; class=&quot;CIDa0894e9e-12ff-403a-83ec-c5acf0fa54d1&quot;&gt;" style="text;whiteSpace=wrap;html=1;" vertex="1" parent="1">
          <mxGeometry x="-347" y="320" width="580" height="600" as="geometry" />
        </mxCell>
        <mxCell id="Fw6j12jvMZ7ZyCBsgmP4-49" value="" style="group" vertex="1" connectable="0" parent="1">
          <mxGeometry x="-150" y="420" width="220" height="400" as="geometry" />
        </mxCell>
        <mxCell id="Fw6j12jvMZ7ZyCBsgmP4-41" value="" style="rounded=1;whiteSpace=wrap;html=1;fillColor=#FFFFFF;" vertex="1" parent="Fw6j12jvMZ7ZyCBsgmP4-49">
          <mxGeometry x="80" width="60" height="50" as="geometry" />
        </mxCell>
        <mxCell id="Fw6j12jvMZ7ZyCBsgmP4-46" value="" style="group" vertex="1" connectable="0" parent="Fw6j12jvMZ7ZyCBsgmP4-49">
          <mxGeometry width="220" height="400" as="geometry" />
        </mxCell>
        <mxCell id="Fw6j12jvMZ7ZyCBsgmP4-31" value="" style="rounded=0;whiteSpace=wrap;html=1;fillColor=#FFF4C3;" vertex="1" parent="Fw6j12jvMZ7ZyCBsgmP4-46">
          <mxGeometry y="90" width="220" height="310" as="geometry" />
        </mxCell>
        <mxCell id="Fw6j12jvMZ7ZyCBsgmP4-32" value="Foto der BA" style="rounded=0;whiteSpace=wrap;html=1;fillColor=#FFFFFF;" vertex="1" parent="Fw6j12jvMZ7ZyCBsgmP4-46">
          <mxGeometry x="10" y="230" width="200" height="60" as="geometry" />
        </mxCell>
        <mxCell id="Fw6j12jvMZ7ZyCBsgmP4-33" value="Informationen der BA" style="rounded=0;whiteSpace=wrap;html=1;fillColor=#FFFFFF;" vertex="1" parent="Fw6j12jvMZ7ZyCBsgmP4-46">
          <mxGeometry x="10" y="300" width="200" height="90" as="geometry" />
        </mxCell>
        <mxCell id="Fw6j12jvMZ7ZyCBsgmP4-43" value="" style="group" vertex="1" connectable="0" parent="Fw6j12jvMZ7ZyCBsgmP4-46">
          <mxGeometry width="220" height="220" as="geometry" />
        </mxCell>
        <mxCell id="Fw6j12jvMZ7ZyCBsgmP4-9" value="Login" style="rounded=1;whiteSpace=wrap;html=1;" vertex="1" parent="Fw6j12jvMZ7ZyCBsgmP4-43">
          <mxGeometry x="150" y="60" width="70" height="30" as="geometry" />
        </mxCell>
        <mxCell id="Fw6j12jvMZ7ZyCBsgmP4-22" value="" style="group" vertex="1" connectable="0" parent="Fw6j12jvMZ7ZyCBsgmP4-43">
          <mxGeometry y="60" width="40" height="30" as="geometry" />
        </mxCell>
        <mxCell id="Fw6j12jvMZ7ZyCBsgmP4-12" value="&lt;font style=&quot;font-size: 6px&quot;&gt;&lt;font style=&quot;font-size: 6px&quot;&gt;&lt;br&gt;&lt;/font&gt;&lt;/font&gt;" style="rounded=1;whiteSpace=wrap;html=1;" vertex="1" parent="Fw6j12jvMZ7ZyCBsgmP4-22">
          <mxGeometry width="40" height="30" as="geometry" />
        </mxCell>
        <mxCell id="Fw6j12jvMZ7ZyCBsgmP4-21" value="" style="group" vertex="1" connectable="0" parent="Fw6j12jvMZ7ZyCBsgmP4-22">
          <mxGeometry x="6.666666666666668" y="7.5" width="26.66666666666667" height="14.625" as="geometry" />
        </mxCell>
        <mxCell id="Fw6j12jvMZ7ZyCBsgmP4-17" value="" style="endArrow=none;html=1;" edge="1" parent="Fw6j12jvMZ7ZyCBsgmP4-21">
          <mxGeometry width="50" height="50" relative="1" as="geometry">
            <mxPoint as="sourcePoint" />
            <mxPoint x="26.66666666666667" as="targetPoint" />
          </mxGeometry>
        </mxCell>
        <mxCell id="Fw6j12jvMZ7ZyCBsgmP4-19" value="" style="endArrow=none;html=1;" edge="1" parent="Fw6j12jvMZ7ZyCBsgmP4-21">
          <mxGeometry width="50" height="50" relative="1" as="geometry">
            <mxPoint y="7.125" as="sourcePoint" />
            <mxPoint x="26.66666666666667" y="7.125" as="targetPoint" />
          </mxGeometry>
        </mxCell>
        <mxCell id="Fw6j12jvMZ7ZyCBsgmP4-20" value="" style="endArrow=none;html=1;" edge="1" parent="Fw6j12jvMZ7ZyCBsgmP4-21">
          <mxGeometry width="50" height="50" relative="1" as="geometry">
            <mxPoint y="14.625" as="sourcePoint" />
            <mxPoint x="26.66666666666667" y="14.625" as="targetPoint" />
          </mxGeometry>
        </mxCell>
        <mxCell id="Fw6j12jvMZ7ZyCBsgmP4-7" value="&lt;a class=&quot;CIDf3cde3c0-82a4-4f52-b4b0-d223dfd1d6a2&quot;&gt;&amp;nbsp;&lt;/a&gt;&lt;img src=&quot;data:image/png;base64, iVBORw0KGgoAAAANSUhEUgAAAC0AAAAnCAYAAACbgcH8AAAAAXNSR0IArs4c6QAAAARnQU1BAACxjwv8YQUAAAAJcEhZcwAADsMAAA7DAcdvqGQAAAvNSURBVFhHzVl5cJXVFf+9/b28Lct7edkXErJvaAAhYIEQoiVqS0uxOkOd6YgpWhxntP4RrbbOUDtUq3V0Wh1bdQodK1bBhbEou0sREiIkkD1k3997Wd6+9Jz7XkLYA3Ysv0zyvvfd7977u+ee8zvnfpEECZiF2V8lEkn46sbCRaTfP9CC3qEJSBBEWVECinPiwy03DqThzxm8+1kzXnmnHq/8sw7HG7vDd28snEeaje72+qFRyRGpV9CvKtxyY+E80sNWJ5wuH5EH9Bo5LNGacMuNhfNIt3Rb4fL4ECDW5igN5iUaxf3BMQe6BsZhn3CJ7/9vnBeIb33YgFf/VQ+n24eKUjM2VObjs2NDaDo7KnYgyqBGxeIU3FaWDqVCHu713eM80jUvH8aeLzqgVckwL04Nu0uK9l47pFIJZPTr9wehVcvx6/sXorIsK9zru8cM6YkpDx55bj9qzwxCTaT9/gAUMiA/TQujTo1jTeNwevxw029ZQRS2blkNve5in+fhvmkZxu6DbRgcncQt+bG4Z22RWPjOT5uw60ArCjKiYe88hLz58bCOjWFqyoG4+ASa04/09HSsWrVKjNXa2oro6GgoFAqoVCrxybljZo97SJtt5LM8uI8sGm+UYdMPsrBmeQEUSjXe/OAkXnr7BHWUkfXHMT7puiTp9w+04fm/fy1UKBAIQi2dItIF8PokONU2ghPNw+RuY2j/8kNMDDYjt2Q5vrc4D05nKxxON7Zv3w63243bb78dmzdvhlqthkajQXx8PKqqqsSCZgKxe3ACo+MuWgkQpZXglxvysLb8ZkGYkZtuFu7BOZKt7fV5xf3ZOEkWfnHHMWoLCHcKBiW4OddChpBhxOZA7+AkxYKMvgNKtR6J+WsRkX0vpozLUbb2AWzbtg13b9iAXbt2Yd++fXC5XFi3bh02bdqEpKQkPPHEE2hpaTlHuodI24g0zYXieQaUL82nu+fSuMvjFQtiX5KR28hkUowSkW+a+kIPELbvaYTDHXqOoZQHkJkSI66t4270jUxSv1CjTK6ClAaSBH040TSA3/75EF74Ry0KF5RSaxCPP/441q9fj/vuuw/l5eXYsmWLsHpXV1eItJtkrrPPTlJHGkisc9IjIZEquGkGnX3jYkKOAGOEnDTdjWde/RyTE+OivXdoEg1to3QVIsVjmfVSxJmjxfchks3+kSmxA+JHKofHRX1phQq5FF7qsOPjRuw8OIyBYRu6znaioqJC9GX09/cLy7OrCNJjZAUeUE6kpDRIUYZJPDgN9k32R27jQIs2qMhvj6N7wIbceWbxTEuXlQLVN7M33CfJooFBH/L71h4b/IGAuOaHpApyu3PCJcaW0vxfnbbh82+GUVmxCikpKeFWoK+vDwaDARYLuRvfGLE5hU9LydkilEBifGhLp2GlAK1vHgpFLg3cOeRFK0lhlEFOpHTiGe7PiYkeEWC/zkuPgYEGdJDut/VYqW/IG3nhPrcDcmVEmDhZXiIl4lJIyG0CEgUSUrPJ70MLttlseP3118UiZkiP2Z203Q7hzymxCkRFhjLhNN7Z2wTbpFsQYk62KVIGmov1XCYPCRArj88XIsBtRk0QhfMtkMgUpApetHXZRBwIEFGvyw6VzkzWVQrCPs8UvO4JjJ39GlODp7DvaCfq6s/g8OFDqK6uhsPhQE1NjbC2nFfNW+ejmTiqC+ZFkyaSucM4fnoQuw62cmyEwMSZOX33+UPfGQYtTx6ysFwSwB23JmBRYapo89E9a3jRAnThdYyhu24nhlr2w+9zIxjwk5/LEPB5RHA2nTmFBzZvQXKsBiUlC4SCJCYmiu5yTip1RExBVmDSp7td+M+pPpgiI0jCRvDGBw0YokJKSQY1GWSYcLKSkG+SnFknfRQcborqCFQuSUPdmT4MDdtx25J4rKsohiaCtp8nobEjdUrYibhYJBkqSP6dUHQnVNoYmlcOhSYSUpLX8f4GYe2k4h8hQqvDszUrkJWRRrtEkhWGnC0zYp0ia/hpLBnqWmx48Nl9Mxbk2FHJAliSGwWDToXdXwxBpSDfowUOjHlwuLYbFUuzEWfS4YXHVhMZqhKhwAeHWpEaa0dJXpLYpLgYHTpYgdgHxbg+aCJToTJwJuQijdcihdM+ioA0AlKNBW6yfl2zHblZ5wgzZL/b+szTmckGkjEZ5FLyNa+Xtt1P/h2EnryE0/iPV6Vj/Zo8HDgxik4KKK4C2TVYLdq6x6GhekSrUVKhFcDps3bspBj46+5TVGRR1tSq8dp7J/FFfZ+QTKoO4KbdGWv9DPNLViPZEoGsJC2yU4xIjQlioP1LlJaWoqQwn3bfS67jwapFGWGfDGGm9vATixHbpNDTiSknAjS6Rq1AYqyetDYSlJVxsrkPVvsELSwoEgUnpIZ2q7C4hSytkMtIPl3kThTUZNEIClStWon+UZZTKXSqIHJTtMhI0OC15x/Fm9vfQ3KCSQTolNOH5pY2/Om5rdh4/8PIysohy/thpFjJSI0lzpcgPSdMPxruz10dLi+aOwbx8ZE2HKgdJHn0COkM1TCczoG0WCUqFlqwclEmzKYojE9MUg2xGg8++Rp6hj3kNjaKkyAmrL04c+QN5K+ohkYXxTMgyRyBZ6oXI5b6TWPOpDlj/uXdeiiVMkouamQkRSItzoDkeL2oAhnDo3YqrBrw76M9VFA5kZOiQ9XSRNyxsoD8VIXTHWPYf6wb7390ALWfvITCqq1Ei384E8swOdSCnhPvILv8MbohE4s2GZR48ZFbkDM/pESMOZOuJYX52VN7RNnKQcOlq4YkZUFOLBblxWFZSSIyU6OF9Y/UnkV71yC+v2wezGYzjtT14iPaicN1PRQHAYx3fwmXvR8pN20QATmNnrp3WZSQuvBeBLwu8v8gYoj0Hx9efH2kOU3fU/PhTFabhodLUBoig45mqxen4qeVOTCGU/eIzYVXaXf2Hu2gYswDFe0Su6bfS7pJfWScEQVItymxnNn7e2StoMJIb6HmgCBtNirx8qNLkZaaFH6WNiH8eVXoKSBijGpBcDa41FSTxTv7x/G33Q145A/7UU9VG0Orptq7Z4z02SN2aDqW5Eot5KpQ+g+BFiBXI33RRqj0sYLwNFRUTBkvqNvnTFpLSpJLtQTX1JcCKwdHeH3rCB3bjlAabhfq83T1UspqOmG1aTCp2cQYUpkceku22IFp8AujhBiqb4z68J0Q5kxaR5YuzDST3HHuvjTYkmz5QasL2946joPHOqjSM+Khu2+aSSpXwoULYSPcnB1Nu3CurGDMmTRPWZJthilKI8rOK4ErwWHy5xd31KKjexTLihOxvDhBHMHmCjY4e8WtpenhO+cwZ9KM3HQTlhbNbXIu7LsGHXhhx1FoyJ/vWjmfqkL5RTFxObA7leWRrCZf/C7xmkjz67LKJekwR2qEhl4NCqpRjjaO4pMjTSIeCjNN5F5X78eETboAflJZMFP6zsY1kWYsW5CEu1ZQLUCYi9E4bt/+tIXSsYzqa1aGK3diz5PCj/Ur05CTESpFL8Q1k2ZsrCrArQsSRe18NXAsnB1woK6xF3l0jOO3VJeLCV5PgIq11Qti8MM1RWTl88+p07gu0gatCo9uXIglBRYqpK5MnBVgyukhN+lHUqwW0az1lyAtCFMpuizPgF9sWEinp8hwy8W4LtKMeJMeT1WXoXJxMk0WuKyPswxSBUsZdQJ6KlEi6Y9/lovwFb8cktJpZ81NUfjVz8uQmGAJNV4G102aYY7S4sn7y/DQ+iIkmjQUZD7hMhe6LVd8w3R4HqdzJCcpZsrPeOhZv8+HZJMC1Xemoaa6HPGW0On+Sri20vQKaOkcotNKG441DqC9j0/m/EInlFDYkslmJX7zwC14c08H9n7VgWidDCkWDUpzzaiiwiorM5l2ZW42/J+RnkZXvxXNnWN0OBjCyBj/74Z9NUhxIKdzYwG+bhxCT+8winPjkJ1qQlJ8FC3u0gF3OUj8fv/R8PW3Bgfd9AnD43bD5T73vo9v8ymfS1oJHeXUav7XiFRI4LXZDfgvPXYjh14mwpAAAAAASUVORK5CYII=&quot; class=&quot;CIDf3cde3c0-82a4-4f52-b4b0-d223dfd1d6a2&quot;&gt;" style="text;whiteSpace=wrap;html=1;" vertex="1" parent="Fw6j12jvMZ7ZyCBsgmP4-43">
          <mxGeometry x="85" y="-20" width="50" height="50" as="geometry" />
        </mxCell>
        <mxCell id="Fw6j12jvMZ7ZyCBsgmP4-30" value="" style="group;fillColor=#D4E1F5;" vertex="1" connectable="0" parent="Fw6j12jvMZ7ZyCBsgmP4-43">
          <mxGeometry y="90" width="150" height="130" as="geometry" />
        </mxCell>
        <mxCell id="Fw6j12jvMZ7ZyCBsgmP4-24" value="" style="rounded=0;whiteSpace=wrap;html=1;fillColor=#D4E1F5;rotation=0;" vertex="1" parent="Fw6j12jvMZ7ZyCBsgmP4-30">
          <mxGeometry width="150" height="130" as="geometry" />
        </mxCell>
        <mxCell id="Fw6j12jvMZ7ZyCBsgmP4-25" value="Freie Studienplätze" style="rounded=1;whiteSpace=wrap;html=1;" vertex="1" parent="Fw6j12jvMZ7ZyCBsgmP4-30">
          <mxGeometry x="10" y="70" width="130" height="20" as="geometry" />
        </mxCell>
        <mxCell id="Fw6j12jvMZ7ZyCBsgmP4-26" value="Unternehmen" style="rounded=1;whiteSpace=wrap;html=1;" vertex="1" parent="Fw6j12jvMZ7ZyCBsgmP4-30">
          <mxGeometry x="10" y="10" width="130" height="20" as="geometry" />
        </mxCell>
        <mxCell id="Fw6j12jvMZ7ZyCBsgmP4-27" value="Studiengänge" style="rounded=1;whiteSpace=wrap;html=1;" vertex="1" parent="Fw6j12jvMZ7ZyCBsgmP4-30">
          <mxGeometry x="10" y="40" width="130" height="20" as="geometry" />
        </mxCell>
        <mxCell id="Fw6j12jvMZ7ZyCBsgmP4-28" value="Studienplatzfinder" style="rounded=1;whiteSpace=wrap;html=1;" vertex="1" parent="Fw6j12jvMZ7ZyCBsgmP4-30">
          <mxGeometry x="10" y="100" width="130" height="20" as="geometry" />
        </mxCell>
        <mxCell id="Fw6j12jvMZ7ZyCBsgmP4-44" style="edgeStyle=orthogonalEdgeStyle;rounded=0;orthogonalLoop=1;jettySize=auto;html=1;exitX=1;exitY=0.5;exitDx=0;exitDy=0;entryX=0.433;entryY=-0.015;entryDx=0;entryDy=0;entryPerimeter=0;" edge="1" parent="Fw6j12jvMZ7ZyCBsgmP4-43" source="Fw6j12jvMZ7ZyCBsgmP4-12" target="Fw6j12jvMZ7ZyCBsgmP4-24">
          <mxGeometry relative="1" as="geometry" />
        </mxCell>
      </root>
    </mxGraphModel>
  </diagram>
</mxfile>
